HIERARCHY
ROOT Hips
{
	OFFSET 0.000000 83.214638 0.000000
	CHANNELS 6 Xposition Yposition Zposition Xrotation Yrotation Zrotation
	JOINT Pelvis
	{
		OFFSET 0.000000 0.000000 0.000000
		CHANNELS 3 Xrotation Yrotation Zrotation
		JOINT LeftUpLeg
		{
			OFFSET 8.479700 -4.795502 -0.379100
			CHANNELS 3 Xrotation Yrotation Zrotation
			JOINT LeftLeg
			{
				OFFSET 0.024144 -32.555107 0.112900
				CHANNELS 3 Xrotation Yrotation Zrotation
				JOINT LeftFoot
				{
					OFFSET -0.024144 -32.638630 -3.012600
					CHANNELS 3 Xrotation Yrotation Zrotation
					JOINT LeftToeBase
					{
						OFFSET 0.970200 -13.225400 11.864200
						CHANNELS 3 Xrotation Yrotation Zrotation
						End Site
						{
							OFFSET 0.000000 12.319262 0.000000
						}
					}
					JOINT LFootTongue
					{
						OFFSET 1.142400 -1.059800 6.665200
						CHANNELS 3 Xrotation Yrotation Zrotation
						End Site
						{
							OFFSET 0.000000 12.319262 0.000000
						}
					}
				}
				JOINT LeftPantLeg
				{
					OFFSET 0.918482 -16.533964 -2.284700
					CHANNELS 3 Xrotation Yrotation Zrotation
					End Site
					{
						OFFSET 0.350399 24.744368 0.000000
					}
				}
			}
		}
		JOINT RightUpLeg
		{
			OFFSET -8.479700 -4.795502 -0.379100
			CHANNELS 3 Xrotation Yrotation Zrotation
			JOINT RightLeg
			{
				OFFSET -0.023144 -32.555092 0.112900
				CHANNELS 3 Xrotation Yrotation Zrotation
				JOINT RightFoot
				{
					OFFSET 0.023144 -32.638641 -3.012700
					CHANNELS 3 Xrotation Yrotation Zrotation
					JOINT RightToeBase
					{
						OFFSET -0.970200 -13.225400 11.864200
						CHANNELS 3 Xrotation Yrotation Zrotation
						End Site
						{
							OFFSET 0.000000 12.319244 0.000000
						}
					}
					JOINT RFootTongue
					{
						OFFSET -1.142200 -1.059800 6.665200
						CHANNELS 3 Xrotation Yrotation Zrotation
						End Site
						{
							OFFSET 0.000000 12.319243 0.000000
						}
					}
				}
				JOINT RightPantLeg
				{
					OFFSET -0.919482 -16.533978 -2.284800
					CHANNELS 3 Xrotation Yrotation Zrotation
					End Site
					{
						OFFSET -0.350400 24.744419 0.000000
					}
				}
			}
		}
	}
	JOINT Spine
	{
		OFFSET 0.000000 7.722000 1.166200
		CHANNELS 3 Xrotation Yrotation Zrotation
		JOINT Spine1
		{
			OFFSET 0.000000 12.024101 0.248800
			CHANNELS 3 Xrotation Yrotation Zrotation
			JOINT Spine2
			{
				OFFSET 0.000000 11.502998 -0.491200
				CHANNELS 3 Xrotation Yrotation Zrotation
				JOINT Neck
				{
					OFFSET 0.000000 18.430702 -3.123100
					CHANNELS 3 Xrotation Yrotation Zrotation
					JOINT Head
					{
						OFFSET 0.000000 9.051102 1.034000
						CHANNELS 3 Xrotation Yrotation Zrotation
						JOINT HairB
						{
							OFFSET 0.208400 24.786102 24.822300
							CHANNELS 3 Xrotation Yrotation Zrotation
							End Site
							{
								OFFSET 0.000000 32.263779 0.000000
							}
						}
						JOINT HairA
						{
							OFFSET -7.081100 24.428299 23.196600
							CHANNELS 3 Xrotation Yrotation Zrotation
							End Site
							{
								OFFSET 0.000000 32.263779 0.000000
							}
						}
						JOINT Hat
						{
							OFFSET 16.728800 15.048294 -15.439601
							CHANNELS 3 Xrotation Yrotation Zrotation
							End Site
							{
								OFFSET 0.000000 32.263779 0.000000
							}
						}
					}
				}
				JOINT LeftShoulder
				{
					OFFSET 6.197800 13.665199 -4.064700
					CHANNELS 3 Xrotation Yrotation Zrotation
					JOINT LeftArm
					{
						OFFSET 7.778100 -0.187103 -1.709300
						CHANNELS 3 Xrotation Yrotation Zrotation
						JOINT LeftForeArm
						{
							OFFSET 22.049376 0.000000 0.000000
							CHANNELS 3 Xrotation Yrotation Zrotation
							JOINT LeftHand
							{
								OFFSET 23.009392 0.000000 0.000000
								CHANNELS 3 Xrotation Yrotation Zrotation
								JOINT LeftHandThumb1
								{
									OFFSET 3.507191 -2.063065 3.133727
									CHANNELS 3 Xrotation Yrotation Zrotation
									JOINT LeftHandThumb2
									{
										OFFSET 3.101337 -1.790558 1.790558
										CHANNELS 3 Xrotation Yrotation Zrotation
										JOINT LeftHandThumb3
										{
											OFFSET 3.058640 -1.765907 1.765906
											CHANNELS 3 Xrotation Yrotation Zrotation
											End Site
											{
												OFFSET -0.415260 3.926476 -0.049563
											}
										}
									}
								}
								JOINT LeftHandIndex1
								{
									OFFSET 11.334419 -0.901459 3.706815
									CHANNELS 3 Xrotation Yrotation Zrotation
									JOINT LeftHandIndex2
									{
										OFFSET 3.283112 0.000000 0.000000
										CHANNELS 3 Xrotation Yrotation Zrotation
										JOINT LeftHandIndex3
										{
											OFFSET 3.323853 0.000000 0.000000
											CHANNELS 3 Xrotation Yrotation Zrotation
											End Site
											{
												OFFSET -1.135597 3.097809 0.402452
											}
										}
									}
								}
								JOINT LeftHandMiddle1
								{
									OFFSET 11.335861 0.000000 0.000000
									CHANNELS 3 Xrotation Yrotation Zrotation
									JOINT LeftHandMiddle2
									{
										OFFSET 3.410492 0.000000 0.000000
										CHANNELS 3 Xrotation Yrotation Zrotation
										JOINT LeftHandMiddle3
										{
											OFFSET 3.312172 0.000000 0.000000
											CHANNELS 3 Xrotation Yrotation Zrotation
											End Site
											{
												OFFSET -1.150200 3.080154 0.400270
											}
										}
									}
								}
								JOINT LeftHandRing1
								{
									OFFSET 11.514786 -0.013176 -3.003090
									CHANNELS 3 Xrotation Yrotation Zrotation
									JOINT LeftHandRing2
									{
										OFFSET 3.053307 0.000000 0.000000
										CHANNELS 3 Xrotation Yrotation Zrotation
										JOINT LeftHandRing3
										{
											OFFSET 3.295807 0.000000 0.000000
											CHANNELS 3 Xrotation Yrotation Zrotation
											End Site
											{
												OFFSET -1.281006 3.013344 0.375733
											}
										}
									}
								}
								JOINT LeftHandPinky1
								{
									OFFSET 10.518692 -0.960396 -5.730441
									CHANNELS 3 Xrotation Yrotation Zrotation
									JOINT LeftHandPinky2
									{
										OFFSET 2.861649 0.000000 0.000000
										CHANNELS 3 Xrotation Yrotation Zrotation
										JOINT LeftHandPinky3
										{
											OFFSET 2.863380 0.000000 0.000000
											CHANNELS 3 Xrotation Yrotation Zrotation
											End Site
											{
												OFFSET -0.843597 2.711159 0.369971
											}
										}
									}
								}
							}
							JOINT LSleeve
							{
								OFFSET 6.676277 -0.344902 -1.011730
								CHANNELS 3 Xrotation Yrotation Zrotation
								End Site
								{
									OFFSET 0.000000 14.885353 0.000000
								}
							}
						}
					}
				}
				JOINT RightShoulder
				{
					OFFSET -6.197800 13.665199 -4.064700
					CHANNELS 3 Xrotation Yrotation Zrotation
					JOINT RightArm
					{
						OFFSET -7.778100 -0.187103 -1.709300
						CHANNELS 3 Xrotation Yrotation Zrotation
						JOINT RightForeArm
						{
							OFFSET -22.049376 0.000000 0.000000
							CHANNELS 3 Xrotation Yrotation Zrotation
							JOINT RightHand
							{
								OFFSET -23.009392 0.000000 0.000000
								CHANNELS 3 Xrotation Yrotation Zrotation
								JOINT RightHandThumb1
								{
									OFFSET -3.507191 -2.063065 3.133727
									CHANNELS 3 Xrotation Yrotation Zrotation
									JOINT RightHandThumb2
									{
										OFFSET -3.101337 -1.790558 1.790558
										CHANNELS 3 Xrotation Yrotation Zrotation
										JOINT RightHandThumb3
										{
											OFFSET -3.058640 -1.765907 1.765906
											CHANNELS 3 Xrotation Yrotation Zrotation
											End Site
											{
												OFFSET 0.415260 3.926476 -0.049563
											}
										}
									}
								}
								JOINT RightHandIndex1
								{
									OFFSET -11.334419 -0.901459 3.706815
									CHANNELS 3 Xrotation Yrotation Zrotation
									JOINT RightHandIndex2
									{
										OFFSET -3.283112 0.000000 0.000000
										CHANNELS 3 Xrotation Yrotation Zrotation
										JOINT RightHandIndex3
										{
											OFFSET -3.323853 0.000000 0.000000
											CHANNELS 3 Xrotation Yrotation Zrotation
											End Site
											{
												OFFSET 1.135597 3.097809 0.402452
											}
										}
									}
								}
								JOINT RightHandMiddle1
								{
									OFFSET -11.335861 0.000000 0.000000
									CHANNELS 3 Xrotation Yrotation Zrotation
									JOINT RightHandMiddle2
									{
										OFFSET -3.410492 0.000000 0.000000
										CHANNELS 3 Xrotation Yrotation Zrotation
										JOINT RightHandMiddle3
										{
											OFFSET -3.312172 0.000000 0.000000
											CHANNELS 3 Xrotation Yrotation Zrotation
											End Site
											{
												OFFSET 1.150200 3.080154 0.400270
											}
										}
									}
								}
								JOINT RightHandRing1
								{
									OFFSET -11.514786 -0.013176 -3.003090
									CHANNELS 3 Xrotation Yrotation Zrotation
									JOINT RightHandRing2
									{
										OFFSET -3.053307 0.000000 0.000000
										CHANNELS 3 Xrotation Yrotation Zrotation
										JOINT RightHandRing3
										{
											OFFSET -3.295807 0.000000 0.000000
											CHANNELS 3 Xrotation Yrotation Zrotation
											End Site
											{
												OFFSET 1.281006 3.013344 0.375733
											}
										}
									}
								}
								JOINT RightHandPinky1
								{
									OFFSET -10.518692 -0.960396 -5.730441
									CHANNELS 3 Xrotation Yrotation Zrotation
									JOINT RightHandPinky2
									{
										OFFSET -2.861649 0.000000 0.000000
										CHANNELS 3 Xrotation Yrotation Zrotation
										JOINT RightHandPinky3
										{
											OFFSET -2.863380 0.000000 0.000000
											CHANNELS 3 Xrotation Yrotation Zrotation
											End Site
											{
												OFFSET 0.843597 2.711159 0.369971
											}
										}
									}
								}
							}
							JOINT RSleeve
							{
								OFFSET -6.676277 -0.344902 -1.011730
								CHANNELS 3 Xrotation Yrotation Zrotation
								End Site
								{
									OFFSET 0.000000 14.885353 0.000000
								}
							}
						}
					}
				}
				JOINT Backpack
				{
					OFFSET 0.000000 -2.471497 36.677502
					CHANNELS 3 Xrotation Yrotation Zrotation
					End Site
					{
						OFFSET 0.000000 20.427315 0.000000
					}
				}
				JOINT Hood
				{
					OFFSET 0.000000 18.754097 -10.431000
					CHANNELS 3 Xrotation Yrotation Zrotation
					JOINT Hood1
					{
						OFFSET 0.000000 -5.011002 -7.685901
						CHANNELS 3 Xrotation Yrotation Zrotation
						End Site
						{
							OFFSET 0.000000 9.175140 0.000000
						}
					}
				}
				JOINT LHoodieString
				{
					OFFSET 5.250500 16.397697 3.089900
					CHANNELS 3 Xrotation Yrotation Zrotation
					JOINT LHoodieString1
					{
						OFFSET 0.257700 -6.364304 3.694600
						CHANNELS 3 Xrotation Yrotation Zrotation
						JOINT LHoodieString2
						{
							OFFSET 0.000000 -9.643799 2.679100
							CHANNELS 3 Xrotation Yrotation Zrotation
							End Site
							{
								OFFSET 0.000000 10.009018 0.000000
							}
						}
					}
				}
				JOINT RHoodieString
				{
					OFFSET -5.250500 16.397697 3.089900
					CHANNELS 3 Xrotation Yrotation Zrotation
					JOINT RHoodieString1
					{
						OFFSET -0.257700 -6.364304 3.694600
						CHANNELS 3 Xrotation Yrotation Zrotation
						JOINT RHoodieString2
						{
							OFFSET 0.000000 -9.643799 2.679100
							CHANNELS 3 Xrotation Yrotation Zrotation
							End Site
							{
								OFFSET 0.000000 10.009018 0.000000
							}
						}
					}
				}
			}
			JOINT LBackpack_Strap
			{
				OFFSET 15.223200 -7.719803 -6.610900
				CHANNELS 3 Xrotation Yrotation Zrotation
				End Site
				{
					OFFSET 0.000000 16.040596 0.000000
				}
			}
			JOINT RBackpack_Strap
			{
				OFFSET -15.223000 -7.719803 -6.610900
				CHANNELS 3 Xrotation Yrotation Zrotation
				End Site
				{
					OFFSET 0.000000 16.040596 0.000000
				}
			}
		}
	}
	JOINT BoyFacialAnim_Joint
	{
		OFFSET 1.000000 -82.208099 -1.550900
		CHANNELS 3 Xrotation Yrotation Zrotation
		End Site
		{
			OFFSET 0.000000 30.012791 0.000000
		}
	}
}
MOTION
Frames: 4
Frame Time: 0.033333
0.211520 80.982040 0.357269 -0.893099 1.580253 -5.134925 -0.000000 -0.000000 0.000000 -21.025778 10.101548 17.115679 25.514385 9.344926 2.405478 -3.793151 3.628227 -11.079601 0.000000 0.000002 -0.000000 0.000000 0.000002 -0.000000 -0.000000 -0.000001 0.000000 -0.382864 -4.777548 11.293571 10.165984 -5.164284 3.254151 -8.881431 1.068923 -8.686288 0.000000 -0.000001 0.000000 0.000000 -0.000001 0.000000 -0.000001 -0.000001 -0.000001 0.514252 -0.056563 3.143107 1.030278 -0.093040 5.732470 1.030277 -0.093041 5.732468 1.046610 -0.298136 -2.174059 1.574061 0.544181 -8.140514 0.000000 0.000000 0.000000 0.000000 0.000000 0.000000 0.000000 0.000000 0.000000 3.582332 -13.764047 -5.044411 4.032773 3.507348 -83.677918 -0.000009 -14.506796 -0.000055 -27.047158 3.499812 -9.456411 18.150236 -1.019426 11.031485 1.350060 32.824171 -3.239202 -0.000000 -0.000000 -0.000000 0.346586 4.685578 -7.894092 0.352247 2.641209 -20.596867 -0.000000 0.000000 -0.000002 0.890314 8.715906 -15.911431 0.809944 3.669330 -33.039845 -0.000000 -0.000000 0.000000 2.438534 11.447687 -26.372177 1.604667 3.617189 -40.769744 -0.000001 -0.000001 0.000001 5.488882 15.790305 -37.067785 1.204121 3.674320 -45.662427 -0.000000 0.000000 0.000001 0.000001 0.000000 0.000001 4.515903 3.326093 5.472513 -1.219824 0.655945 67.339320 -0.000742 17.728410 0.002424 -10.654819 -8.928051 10.233607 18.147628 1.016722 -11.036078 1.349695 -32.823625 3.236688 -0.000000 -0.000002 0.000001 0.346311 -4.684962 7.887205 0.352303 -2.641518 20.596806 -0.000001 0.000000 0.000004 0.889562 -8.715468 15.904335 0.810091 -3.669810 33.039835 0.000001 0.000001 -0.000002 2.437557 -11.447552 26.365056 1.604886 -3.617745 40.769703 -0.000001 0.000001 0.000000 5.487401 -15.790694 37.060497 1.204382 -3.674929 45.662427 -0.000001 0.000000 -0.000001 0.000001 0.000001 -0.000001 0.000000 0.000000 -0.000000 0.000000 0.000000 -0.000000 0.000000 0.000000 -0.000000 0.000000 0.000000 -0.000000 0.000000 0.000000 -0.000000 -0.000000 0.000000 0.000001 0.000000 0.000000 -0.000000 0.000000 0.000000 -0.000000 -0.000000 0.000000 0.000001 0.000000 0.000000 -0.000000 0.000000 0.000000 -0.000000 -0.000000 -0.000000 0.000000 
0.192957 80.979546 0.348988 -0.898609 1.582619 -5.129700 0.000000 0.000000 0.000001 -21.026252 10.102568 17.124910 25.504823 9.338588 2.403985 -3.779455 3.626326 -11.077642 0.000000 0.000001 0.000000 0.000000 0.000001 0.000000 0.000000 0.000001 0.000001 -0.390529 -4.785960 11.304045 10.182499 -5.163129 3.254269 -8.885756 1.068146 -8.702985 -0.000000 0.000001 0.000000 -0.000000 0.000001 0.000000 0.000001 -0.000001 -0.000000 0.527111 -0.065047 3.103559 1.056298 -0.109873 5.653702 1.056298 -0.109873 5.653703 1.008474 -0.294264 -2.133651 1.541909 0.517098 -7.954058 0.000001 0.000000 0.000000 0.000001 0.000000 0.000000 0.000001 0.000000 0.000000 3.526195 -13.677623 -5.120079 3.981151 3.305840 -83.456804 0.458419 -14.514227 0.121438 -26.749092 3.232126 -9.313505 18.150430 -1.008182 11.043134 1.350069 32.824185 -3.239216 0.000000 0.000004 -0.000001 0.346863 4.687576 -7.916166 0.352177 2.641016 -20.594615 -0.000001 -0.000001 -0.000000 0.890866 8.717824 -15.933525 0.809840 3.669157 -33.037628 -0.000000 -0.000001 0.000000 2.439436 11.449466 -26.394399 1.604539 3.617038 -40.767535 -0.000000 0.000000 -0.000007 5.488881 15.790311 -37.067778 1.204119 3.674319 -45.662413 0.000001 0.000002 0.000002 0.000000 0.000000 -0.000001 4.455514 3.351254 5.645455 -1.195324 0.917933 67.256886 0.580399 17.672206 -0.179988 -10.691229 -8.513406 10.011324 18.147621 1.016719 -11.036068 1.349695 -32.823639 3.236689 0.000001 -0.000000 -0.000001 0.346313 -4.684962 7.887199 0.352304 -2.641521 20.596820 -0.000001 -0.000000 0.000005 0.889563 -8.715471 15.904348 0.810091 -3.669811 33.039831 0.000001 0.000001 -0.000000 2.437563 -11.447557 26.365085 1.604883 -3.617746 40.769693 0.000001 -0.000001 0.000004 5.487406 -15.790692 37.060518 1.204379 -3.674923 45.662413 -0.000000 0.000000 -0.000003 0.000000 -0.000001 -0.000000 0.000000 0.000000 0.000001 0.000000 0.000000 0.000001 0.000000 0.000000 0.000001 0.000000 0.000000 0.000001 0.000000 0.000000 -0.000000 -0.000000 0.000000 -0.000000 0.000000 0.000000 0.000001 0.000000 0.000000 -0.000000 -0.000000 0.000000 -0.000000 0.000000 -0.000000 0.000000 0.000000 -0.000000 0.000000 0.000000 0.000000 0.000001 
0.173486 80.978920 0.342006 -0.909981 1.589785 -5.121412 -0.000000 0.000000 -0.000000 -21.012454 10.105449 17.128588 25.481513 9.334653 2.402315 -3.763036 3.623637 -11.069327 0.000000 -0.000000 0.000000 0.000000 -0.000000 0.000000 0.000001 0.000000 -0.000000 -0.381184 -4.787844 11.313913 10.177257 -5.167753 3.253413 -8.880866 1.067407 -8.719926 0.000000 -0.000001 -0.000000 0.000000 -0.000001 -0.000000 -0.000000 -0.000001 0.000001 0.541909 -0.073572 3.063125 1.086180 -0.126655 5.572778 1.086181 -0.126655 5.572778 0.964154 -0.287060 -2.096923 1.500435 0.494493 -7.758625 0.000000 0.000000 0.000000 0.000000 0.000000 0.000000 0.000000 0.000000 0.000000 3.468859 -13.592711 -5.196838 3.930604 3.104036 -83.235267 0.933547 -14.522603 0.247514 -26.441853 2.955649 -9.156329 18.151011 -0.975163 11.077226 1.350088 32.824175 -3.239280 -0.000000 0.000002 -0.000003 0.347691 4.693452 -7.981077 0.351999 2.640560 -20.589189 0.000000 -0.000001 -0.000000 0.892507 8.723481 -15.998651 0.809565 3.668750 -33.032127 -0.000001 -0.000001 0.000000 2.442094 11.454697 -26.459793 1.604215 3.616665 -40.762026 0.000000 0.000000 -0.000006 5.488886 15.790310 -37.067809 1.204118 3.674323 -45.662420 0.000001 -0.000000 0.000001 0.000000 -0.000000 0.000000 4.393120 3.378299 5.813770 -1.158896 1.166701 67.180279 1.157179 17.632605 -0.361387 -10.724877 -8.100079 9.775601 18.147633 1.016724 -11.036062 1.349686 -32.823635 3.236677 0.000001 0.000000 0.000001 0.346314 -4.684958 7.887196 0.352303 -2.641520 20.596796 -0.000001 -0.000000 0.000000 0.889564 -8.715470 15.904340 0.810092 -3.669809 33.039824 0.000001 0.000001 -0.000002 2.437562 -11.447551 26.365077 1.604886 -3.617745 40.769713 0.000000 0.000001 0.000000 5.487410 -15.790690 37.060518 1.204378 -3.674926 45.662420 -0.000000 -0.000001 0.000000 0.000001 0.000001 0.000000 0.000000 0.000000 0.000000 0.000000 0.000000 0.000000 0.000000 0.000000 0.000000 0.000000 0.000000 0.000000 0.000000 0.000000 -0.000001 0.000000 0.000000 -0.000001 0.000000 0.000000 0.000000 0.000000 0.000000 -0.000001 0.000000 0.000000 -0.000001 0.000000 0.000000 0.000000 0.000000 0.000000 0.000000 -0.000000 0.000000 -0.000000 
0.153067 80.979103 0.336234 -0.923661 1.594174 -5.112663 -0.000000 -0.000000 0.000000 -20.990271 10.107128 17.130437 25.452367 9.335818 2.400934 -3.749300 3.620425 -11.056661 -0.000000 0.000002 0.000000 -0.000000 0.000002 0.000000 -0.000000 0.000001 0.000000 -0.362300 -4.786358 11.324656 10.158851 -5.172539 3.252541 -8.870396 1.066788 -8.738039 0.000000 -0.000000 0.000000 0.000000 -0.000000 0.000000 0.000002 -0.000000 0.000001 0.559367 -0.079083 3.022392 1.121251 -0.137289 5.491057 1.121252 -0.137289 5.491058 0.906514 -0.279695 -2.061940 1.452502 0.474408 -7.562795 0.000000 0.000000 0.000000 0.000000 0.000000 0.000000 0.000000 0.000000 0.000000 3.412338 -13.506819 -5.261702 3.875192 2.897535 -83.026680 1.429100 -14.535471 0.379343 -26.126790 2.672047 -8.970734 18.151950 -0.921414 11.132802 1.350085 32.824185 -3.239294 0.000001 -0.000001 -0.000000 0.349038 4.703009 -8.086708 0.351774 2.639956 -20.582148 -0.000000 0.000000 -0.000005 0.895183 8.732684 -16.104591 0.809227 3.668217 -33.025085 0.000000 -0.000001 -0.000002 2.446427 11.463211 -26.566200 1.603800 3.616183 -40.754967 -0.000000 0.000001 -0.000007 5.488883 15.790313 -37.067788 1.204125 3.674318 -45.662420 -0.000000 0.000001 0.000002 -0.000001 0.000000 -0.000001 4.328728 3.409327 5.983388 -1.113589 1.424674 67.097695 1.739893 17.588622 -0.544378 -10.754469 -7.674700 9.536463 18.147627 1.016725 -11.036082 1.349695 -32.823642 3.236682 -0.000000 0.000001 -0.000001 0.346314 -4.684961 7.887203 0.352302 -2.641521 20.596808 -0.000001 -0.000001 0.000002 0.889563 -8.715472 15.904358 0.810090 -3.669811 33.039831 0.000001 0.000000 0.000003 2.437561 -11.447551 26.365085 1.604885 -3.617747 40.769717 -0.000000 -0.000000 0.000000 5.487404 -15.790690 37.060494 1.204384 -3.674921 45.662431 -0.000000 -0.000001 -0.000002 -0.000000 -0.000000 0.000001 -0.000000 0.000000 -0.000000 -0.000000 0.000000 -0.000000 -0.000000 0.000000 -0.000000 -0.000000 0.000000 -0.000000 -0.000000 0.000000 -0.000000 0.000000 -0.000000 -0.000000 -0.000000 0.000000 -0.000000 -0.000000 0.000000 -0.000000 0.000000 -0.000000 -0.000000 -0.000000 -0.000000 -0.000000 -0.000000 -0.000000 -0.000000 -0.000000 -0.000000 0.000000 
